<?xml version="1.0" standalone="no"?>
<!DOCTYPE svg PUBLIC "-//W3C//DTD SVG 20010904//EN"
 "http://www.w3.org/TR/2001/REC-SVG-20010904/DTD/svg10.dtd">
<svg version="1.0" xmlns="http://www.w3.org/2000/svg"
 width="2506.000000pt" height="2506.000000pt" viewBox="0 0 2506.000000 2506.000000"
 preserveAspectRatio="xMidYMid meet">
<metadata>
Created by potrace 1.11, written by Peter Selinger 2001-2013
</metadata>
<g transform="translate(0.000000,2506.000000) scale(0.100000,-0.100000)"
fill="#000000" stroke="none">
<path d="M12297 25015 c-1 -2 -96 -5 -212 -9 -115 -4 -230 -8 -255 -10 -25 -2
-97 -7 -160 -11 -172 -10 -209 -19 -246 -59 -23 -24 -33 -46 -38 -82 -3 -27
-4 -5588 -3 -12359 2 -12072 2 -12311 21 -12338 40 -59 74 -65 486 -88 348
-19 1156 -16 1370 5 19 2 84 7 143 11 60 3 127 8 149 11 75 9 116 43 132 107
3 15 7 5572 7 12347 l0 12320 -22 40 c-35 62 -63 71 -274 85 -49 4 -112 8
-140 10 -175 13 -947 28 -958 20z"/>
<path d="M8989 24506 c-2 -3 -16 -7 -29 -10 -14 -2 -50 -12 -80 -22 -30 -9
-59 -17 -65 -19 -5 -1 -17 -5 -25 -8 -8 -3 -98 -33 -200 -66 -166 -54 -298
-100 -340 -118 -8 -3 -19 -7 -25 -9 -5 -1 -53 -19 -105 -39 -52 -20 -99 -38
-105 -39 -14 -4 -42 -15 -94 -37 -24 -11 -50 -19 -57 -19 -8 0 -14 -4 -14 -8
0 -4 -21 -14 -47 -21 -27 -8 -52 -17 -58 -21 -5 -4 -49 -24 -98 -44 -94 -39
-150 -64 -237 -104 -30 -14 -57 -26 -60 -27 -14 -5 -99 -44 -244 -114 -88 -43
-165 -79 -170 -79 -5 0 -12 -4 -15 -9 -3 -4 -35 -23 -71 -41 -60 -30 -199
-103 -330 -173 -30 -17 -68 -39 -85 -49 -16 -11 -43 -26 -60 -34 -16 -8 -41
-22 -55 -30 -14 -9 -123 -75 -244 -147 -236 -142 -561 -355 -826 -544 -106
-75 -351 -260 -429 -323 -18 -15 -40 -42 -47 -59 -21 -49 -19 -8054 2 -8188
33 -215 100 -334 219 -389 112 -53 37 -51 1950 -49 1771 1 1780 1 1859 22 44
12 95 33 115 48 46 34 97 91 112 123 6 14 15 32 20 42 26 52 65 260 78 418 13
149 22 10036 10 10085 -8 35 -39 73 -67 84 -38 15 -77 23 -83 17z"/>
<path d="M16030 24495 c-50 -17 -88 -61 -94 -109 -3 -22 -7 -2424 -8 -5336 -3
-5243 -3 -5295 17 -5324 39 -59 67 -63 388 -66 618 -6 1102 0 1322 15 138 9
222 16 260 20 22 2 72 7 110 10 39 3 84 8 100 10 17 3 48 7 70 10 250 34 459
78 740 158 23 7 91 29 105 34 8 4 17 7 20 8 6 2 25 9 105 40 151 58 427 210
488 269 6 6 28 23 47 36 98 68 223 196 349 356 24 31 91 135 112 174 13 25 27
47 30 50 9 7 68 135 96 210 38 99 53 146 88 275 17 63 54 248 60 300 3 22 7
57 11 77 3 20 8 56 12 80 3 24 7 1458 9 3187 l3 3144 -20 41 c-11 23 -43 59
-71 81 -27 22 -58 47 -68 55 -10 8 -33 26 -51 40 -19 14 -56 43 -84 66 -28 22
-78 60 -111 84 -33 24 -64 48 -70 53 -5 4 -53 39 -105 77 -52 38 -107 78 -122
89 -14 12 -31 21 -36 21 -6 0 -12 4 -14 9 -5 14 -517 358 -619 416 -10 6 -78
46 -151 90 -170 103 -169 102 -198 117 -14 7 -43 24 -65 39 -22 14 -78 46
-125 70 -47 24 -87 46 -90 49 -3 3 -18 12 -35 20 -16 8 -56 29 -87 47 -31 17
-59 29 -62 25 -3 -3 -6 0 -6 7 0 7 -4 10 -9 7 -5 -4 -11 -3 -13 2 -5 13 -467
238 -480 234 -5 -1 -8 2 -8 8 0 5 -5 10 -12 10 -11 0 -93 36 -160 72 -21 10
-40 19 -43 18 -5 0 -42 15 -115 47 -78 36 -211 89 -345 141 -198 76 -353 133
-367 136 -7 2 -26 8 -43 15 -36 15 -420 142 -438 145 -6 1 -28 7 -47 14 -92
31 -136 38 -170 27z"/>
<path d="M2350 19698 c-19 -5 -46 -19 -59 -31 -24 -23 -276 -398 -386 -577
-82 -132 -105 -170 -105 -174 0 -2 -25 -45 -55 -94 -30 -50 -55 -93 -55 -97 0
-4 -8 -19 -19 -33 -17 -25 -40 -66 -107 -189 -14 -26 -78 -149 -141 -273 -63
-124 -120 -234 -126 -245 -6 -11 -12 -22 -12 -25 0 -3 -17 -39 -37 -80 -42
-88 -87 -185 -118 -255 -19 -44 -37 -85 -71 -160 -19 -44 -102 -244 -125 -305
-14 -36 -29 -74 -34 -85 -5 -11 -26 -65 -46 -120 -19 -55 -42 -113 -49 -130
-19 -45 -220 -648 -230 -691 -2 -10 -16 -59 -30 -109 -43 -147 -76 -266 -92
-335 -8 -36 -17 -72 -20 -80 -3 -8 -7 -19 -8 -25 -2 -5 -10 -39 -19 -75 -9
-36 -37 -155 -61 -265 -42 -193 -50 -231 -60 -285 -3 -14 -7 -36 -10 -50 -31
-151 -81 -447 -89 -518 -2 -20 -13 -104 -25 -187 -11 -82 -22 -170 -25 -195
-26 -228 -46 -422 -52 -505 -3 -55 -8 -111 -9 -125 -2 -14 -6 -92 -10 -175 -4
-82 -9 -170 -11 -195 -6 -65 -6 -859 0 -965 3 -49 8 -139 11 -200 8 -165 22
-344 41 -550 6 -62 42 -371 48 -415 3 -14 7 -47 11 -75 12 -94 66 -420 86
-525 22 -112 68 -342 75 -375 4 -19 23 -111 45 -214 5 -23 14 -62 20 -84 6
-23 12 -49 14 -57 2 -8 26 -105 55 -215 29 -110 56 -213 60 -230 13 -49 57
-197 74 -246 9 -25 17 -54 19 -65 2 -10 7 -26 10 -34 3 -8 42 -125 87 -260 45
-135 86 -250 92 -256 5 -7 8 -16 7 -20 -2 -5 3 -20 9 -34 6 -14 38 -98 72
-188 82 -217 328 -784 349 -805 6 -6 11 -17 11 -25 0 -19 258 -524 375 -732
81 -145 165 -287 314 -531 119 -195 317 -489 350 -517 73 -63 188 -40 223 46
8 20 11 1969 10 7072 -1 3875 -4 7063 -7 7085 -7 45 -19 65 -55 87 -36 22 -70
27 -110 16z"/>
<path d="M22800 19464 c-30 -9 -52 -24 -67 -45 -26 -38 -23 160 -28 -1929 -2
-817 -5 -1501 -8 -1520 -3 -19 -8 -93 -12 -165 -3 -71 -8 -152 -10 -180 -3
-27 -7 -81 -10 -120 -3 -38 -8 -83 -10 -100 -7 -55 -16 -129 -21 -170 -4 -45
-10 -81 -30 -205 -8 -47 -16 -103 -19 -125 -3 -22 -8 -46 -11 -54 -2 -8 -7
-30 -10 -50 -3 -20 -12 -63 -20 -96 -8 -33 -17 -71 -20 -84 -3 -14 -7 -28 -9
-32 -3 -4 -7 -23 -11 -44 -3 -20 -12 -56 -21 -78 -8 -23 -17 -53 -19 -67 -6
-29 -79 -241 -99 -285 -7 -16 -25 -59 -40 -95 -15 -36 -59 -129 -98 -208 -77
-151 -81 -160 -112 -207 -103 -161 -149 -231 -154 -235 -4 -3 -26 -32 -51 -65
-47 -64 -64 -84 -95 -121 -11 -12 -38 -44 -60 -70 -56 -67 -289 -300 -354
-354 -135 -112 -159 -154 -141 -236 10 -45 34 -68 176 -171 55 -40 108 -80
119 -90 11 -10 34 -29 50 -41 99 -77 310 -280 395 -381 25 -29 52 -62 61 -72
8 -10 24 -30 35 -44 10 -15 26 -35 34 -45 104 -128 274 -431 346 -615 78 -200
143 -437 170 -615 3 -19 10 -64 16 -100 11 -73 13 -89 23 -215 4 -49 9 -101
12 -115 3 -14 7 -993 8 -2176 2 -1990 4 -2153 19 -2186 16 -33 49 -57 88 -65
10 -1 21 -4 25 -5 24 -6 83 16 105 40 60 63 421 659 598 987 42 78 297 581
299 590 1 3 16 37 35 77 18 40 50 111 71 158 21 47 48 109 61 138 13 29 24 54
24 56 0 3 10 26 22 53 11 26 22 53 23 58 2 6 13 33 25 60 12 27 37 87 55 134
18 48 36 95 40 106 5 11 9 22 10 25 1 3 6 16 12 30 6 14 27 72 48 130 20 58
41 114 46 125 6 12 12 30 14 40 2 11 4 21 5 23 2 1 3 5 4 10 1 4 4 12 7 17 35
57 274 877 334 1145 2 8 13 56 25 105 12 50 23 99 26 110 2 11 6 29 8 40 25
108 97 477 106 540 6 44 15 103 20 130 9 48 18 102 26 155 2 14 6 49 9 79 3
30 7 57 9 60 2 3 7 33 10 66 4 33 9 67 11 75 2 8 6 47 10 85 3 39 8 77 10 85
2 8 7 51 10 95 4 44 8 82 10 85 1 3 6 54 10 114 4 60 8 118 10 127 2 10 7 72
10 136 4 65 9 143 11 173 22 342 21 1153 -1 1381 -2 20 -7 83 -10 140 -7 136
-13 214 -19 269 -3 25 -8 72 -11 105 -3 33 -8 78 -11 100 -2 22 -6 63 -9 90
-2 28 -5 52 -6 55 -1 3 -1 8 -1 11 1 3 -3 37 -9 75 -10 70 -13 90 -24 179 -4
28 -15 104 -26 170 -11 66 -24 152 -30 190 -13 85 -16 103 -23 135 -3 14 -8
39 -11 55 -6 37 -13 77 -20 113 -20 102 -37 182 -45 212 -5 19 -11 49 -14 65
-7 46 -61 273 -101 430 -19 77 -37 147 -39 155 -2 8 -6 22 -9 30 -5 13 -30
103 -42 155 -11 45 -80 272 -137 445 -95 291 -105 323 -121 365 -9 22 -29 78
-47 125 -17 47 -35 94 -39 105 -5 11 -15 36 -22 55 -32 89 -199 484 -276 655
-108 238 -354 724 -433 855 -5 8 -34 60 -65 115 -31 55 -60 107 -65 115 -32
53 -149 250 -169 284 -13 23 -39 62 -57 89 -19 26 -34 49 -34 52 0 17 -135
207 -160 225 -16 12 -30 19 -30 16 0 -3 -10 -2 -22 3 -15 5 -40 3 -68 -5z"/>
<path d="M5255 11423 c-82 -10 -186 -38 -235 -63 -58 -29 -160 -123 -160 -147
0 -7 -4 -13 -10 -13 -6 0 -9 -3 -8 -7 1 -5 -3 -18 -10 -30 -7 -12 -24 -68 -39
-125 l-28 -103 -3 -4073 c-2 -3531 0 -4077 12 -4101 8 -15 41 -47 73 -72 32
-24 60 -46 63 -49 3 -3 34 -27 70 -55 36 -27 67 -52 70 -55 3 -3 31 -23 62
-44 32 -21 66 -47 77 -57 11 -11 23 -19 25 -19 3 0 32 -20 64 -44 141 -108
613 -417 850 -557 155 -92 275 -159 282 -159 6 0 10 -4 10 -10 0 -5 5 -10 11
-10 6 0 24 -9 40 -21 16 -11 29 -17 29 -14 0 3 12 -2 28 -13 15 -10 50 -30 78
-45 28 -14 78 -40 110 -58 137 -75 497 -251 684 -334 58 -26 129 -58 158 -71
29 -13 54 -24 56 -24 3 0 26 -10 53 -22 26 -12 50 -22 53 -23 3 -1 18 -7 34
-14 64 -26 176 -71 261 -104 207 -80 231 -89 248 -92 9 -2 21 -7 27 -10 10 -6
417 -146 435 -149 12 -2 208 -62 248 -75 53 -18 128 15 153 68 17 34 18 313
21 4951 3 3439 1 4969 -7 5094 -14 234 -49 402 -109 522 -28 58 -117 141 -180
170 -135 62 -11 58 -1871 60 -932 1 -1708 -1 -1725 -3z"/>
<path d="M16978 11424 c-2 -2 -204 -6 -448 -9 -245 -3 -456 -8 -470 -11 -47
-9 -90 -39 -107 -74 -17 -33 -18 -299 -18 -5350 0 -2923 3 -5327 8 -5342 10
-37 76 -80 121 -80 37 0 123 24 336 95 69 22 130 42 135 43 19 4 241 83 335
119 52 20 102 38 110 39 8 2 31 11 50 19 19 9 67 28 105 42 39 15 84 33 100
40 17 7 86 36 155 65 111 46 159 67 265 115 17 8 62 28 100 45 39 18 117 55
175 83 58 29 107 52 110 52 3 1 16 7 30 15 14 7 90 47 170 88 80 40 172 89
205 107 33 18 78 43 100 54 22 11 58 31 80 44 42 24 113 65 180 102 38 21 249
150 365 222 30 19 64 39 74 46 11 7 25 16 30 20 6 4 83 55 171 113 88 58 169
112 180 120 11 8 52 37 90 64 39 27 75 54 82 60 7 5 16 10 22 10 5 0 11 3 13
8 2 4 64 52 138 107 74 55 175 132 225 170 49 39 107 84 129 100 21 17 62 51
90 77 l51 46 3 3149 c2 2253 0 3189 -8 3293 -13 165 -33 323 -55 425 -8 39
-17 81 -19 95 -10 53 -57 228 -78 285 -98 282 -225 490 -413 677 -91 90 -207
185 -239 197 -6 2 -21 13 -33 24 -13 11 -23 16 -23 11 0 -5 -4 -4 -8 2 -4 6
-45 31 -92 56 -245 128 -569 218 -963 267 -170 21 -210 25 -522 47 -97 7
-1031 14 -1037 8z"/>
</g>
</svg>
